<svg width="200" height="200" viewBox="0 0 200 200" fill="none" xmlns="http://www.w3.org/2000/svg">
<path d="M148.93 46.2891C154.854 52.7995 159.379 60.7747 162.504 70.2148C165.694 79.6549 167.289 90.3646 167.289 102.344C167.289 114.323 165.661 125.065 162.406 134.57C159.216 144.01 154.724 151.888 148.93 158.203C142.94 164.779 135.844 169.727 127.641 173.047C119.503 176.367 110.193 178.027 99.7109 178.027C89.4896 178.027 80.1797 176.335 71.7812 172.949C63.4479 169.564 56.3516 164.648 50.4922 158.203C44.6328 151.758 40.1081 143.848 36.918 134.473C33.793 125.098 32.2305 114.388 32.2305 102.344C32.2305 90.4948 33.793 79.8828 36.918 70.5078C40.043 61.0677 44.6003 52.9948 50.5898 46.2891C56.319 39.9089 63.4154 35.026 71.8789 31.6406C80.4076 28.2552 89.6849 26.5625 99.7109 26.5625C110.128 26.5625 119.47 28.2878 127.738 31.7383C136.072 35.1237 143.135 39.974 148.93 46.2891ZM147.172 102.344C147.172 83.4635 142.94 68.9128 134.477 58.6914C126.013 48.4049 114.457 43.2617 99.8086 43.2617C85.0299 43.2617 73.4089 48.4049 64.9453 58.6914C56.5469 68.9128 52.3477 83.4635 52.3477 102.344C52.3477 121.419 56.6445 136.035 65.2383 146.191C73.832 156.283 85.3555 161.328 99.8086 161.328C114.262 161.328 125.753 156.283 134.281 146.191C142.875 136.035 147.172 121.419 147.172 102.344Z" fill="#252525"/>
</svg>
